<svg xmlns="http://www.w3.org/2000/svg" viewBox="0 0 1180 610" width="1180" height="610">
  <style>
    /* Typography & Core Styles */
    .font-sans {
      font-family: -apple-system, BlinkMacSystemFont, "Segoe UI", Roboto, "Helvetica Neue", Arial, sans-serif;
    }
    .font-mono {
      font-family: ui-monospace, SFMono-Regular, "SF Mono", Menlo, Monaco, Consolas, "Liberation Mono", "Courier New", monospace;
    }
    
    /* Subtle Floating for Left Pane ASCII */
    @keyframes float {
      0%, 100% { transform: translateY(0px) rotate(0deg); }
      50% { transform: translateY(-10px) rotate(0.5deg); }
    }
    .float-ascii {
      animation: float 6s ease-in-out infinite;
      transform-box: fill-box;
      transform-origin: center;
    }

    /* Background Glow Pulse */
    @keyframes pulse-glow {
      0%, 100% { opacity: 0.4; }
      50% { opacity: 0.6; }
    }
    .pulse-glow-el {
      animation: pulse-glow 8s ease-in-out infinite;
    }

    /* Sparkle Star Rotation */
    @keyframes spin-sparkle {
      0%, 100% { transform: scale(1) rotate(0deg); opacity: 0.7; }
      50% { transform: scale(1.15) rotate(90deg); opacity: 1; }
    }
    .sparkle-star {
      animation: spin-sparkle 4s ease-in-out infinite;
      transform-box: fill-box;
      transform-origin: center;
    }

    /* ASCII Line-by-Line Reveal */
    @keyframes reveal-line {
      0% { opacity: 0; transform: translateY(4px); }
      100% { opacity: 1; transform: translateY(0); }
    }
    .ascii-line {
      opacity: 0;
      animation: reveal-line 0.4s cubic-bezier(0.16, 1, 0.3, 1) forwards;
    }
    .al-1 { animation-delay: 0.05s; }
    .al-2 { animation-delay: 0.10s; }
    .al-3 { animation-delay: 0.15s; }
    .al-4 { animation-delay: 0.20s; }
    .al-5 { animation-delay: 0.25s; }
    .al-6 { animation-delay: 0.30s; }
    .al-7 { animation-delay: 0.35s; }
    .al-8 { animation-delay: 0.40s; }
    .al-9 { animation-delay: 0.45s; }
    .al-10 { animation-delay: 0.50s; }
    .al-11 { animation-delay: 0.55s; }
    .al-12 { animation-delay: 0.60s; }
    .al-13 { animation-delay: 0.65s; }
    .al-14 { animation-delay: 0.70s; }
    .al-15 { animation-delay: 0.75s; }

    /* Interactive Hover Effects for Pills and Socials */
    .skill-pill {
      transform-box: fill-box;
      transform-origin: center;
      transition: transform 0.25s cubic-bezier(0.16, 1, 0.3, 1), filter 0.25s ease;
      cursor: pointer;
    }
    .skill-pill:hover {
      transform: scale(1.08);
    }

    .social-icon-btn {
      transform-box: fill-box;
      transform-origin: center;
      transition: transform 0.25s cubic-bezier(0.16, 1, 0.3, 1), opacity 0.25s ease;
      cursor: pointer;
      opacity: 0.75;
    }
    .social-icon-btn:hover {
      transform: scale(1.1);
      opacity: 1;
    }
  </style>

  <defs>
    <!-- Background Glows -->
    <radialGradient id="blue-glow" cx="50%" cy="50%" r="50%">
      <stop offset="0%" stop-color="#DBEAFE" stop-opacity="1" />
      <stop offset="100%" stop-color="#DBEAFE" stop-opacity="0" />
    </radialGradient>
    <radialGradient id="purple-glow" cx="50%" cy="50%" r="50%">
      <stop offset="0%" stop-color="#F3E8FF" stop-opacity="1" />
      <stop offset="100%" stop-color="#F3E8FF" stop-opacity="0" />
    </radialGradient>
    <radialGradient id="teal-glow" cx="50%" cy="50%" r="50%">
      <stop offset="0%" stop-color="#D1FAE5" stop-opacity="1" />
      <stop offset="100%" stop-color="#D1FAE5" stop-opacity="0" />
    </radialGradient>

    <!-- Name Gradient -->
    <linearGradient id="name-gradient" x1="0%" y1="0%" x2="100%" y2="0%">
      <stop offset="0%" stop-color="#2563EB" />
      <stop offset="100%" stop-color="#7C3AED" />
    </linearGradient>

    <!-- ASCII Color Gradient -->
    <linearGradient id="ascii-gradient" x1="0%" y1="0%" x2="100%" y2="100%">
      <stop offset="0%" stop-color="#2563EB">
        <animate attributeName="stop-color" values="#2563EB;#7C3AED;#2563EB" dur="8s" repeatCount="indefinite" />
      </stop>
      <stop offset="100%" stop-color="#06B6D4">
        <animate attributeName="stop-color" values="#06B6D4;#2563EB;#06B6D4" dur="8s" repeatCount="indefinite" />
      </stop>
    </linearGradient>

    <!-- Shimmer Gradients for Card Borders -->
    <linearGradient id="border-shimmer" x1="0%" y1="0%" x2="100%" y2="100%">
      <stop offset="0%" stop-color="rgba(15,23,42,0.06)" />
      <stop offset="30%" stop-color="rgba(15,23,42,0.06)" />
      <stop offset="50%" stop-color="rgba(37,99,235,0.2)" />
      <stop offset="70%" stop-color="rgba(15,23,42,0.06)" />
      <stop offset="100%" stop-color="rgba(15,23,42,0.06)" />
      <animateTransform
        attributeName="gradientTransform"
        type="rotate"
        from="0"
        to="360"
        dur="8s"
        repeatCount="indefinite" />
    </linearGradient>

    <!-- Glass Reflection Gradient -->
    <linearGradient id="glass-reflection" x1="0%" y1="0%" x2="100%" y2="100%">
      <stop offset="0%" stop-color="#FFFFFF" stop-opacity="0.25" />
      <stop offset="40%" stop-color="#FFFFFF" stop-opacity="0.10" />
      <stop offset="100%" stop-color="#FFFFFF" stop-opacity="0" />
    </linearGradient>

    <!-- Glowing Filters for Tech Pills -->
    <filter id="react-glow" x="-20%" y="-20%" width="140%" height="140%">
      <feGaussianBlur stdDeviation="2" result="blur" />
      <feMerge>
        <feMergeNode in="blur" />
        <feMergeNode in="SourceGraphic" />
      </feMerge>
    </filter>

    <filter id="ascii-glow" x="-20%" y="-20%" width="140%" height="140%">
      <feGaussianBlur stdDeviation="4" result="blur" />
      <feMerge>
        <feMergeNode in="blur" />
        <feMergeNode in="SourceGraphic" />
      </feMerge>
    </filter>

    <filter id="noise-filter">
      <feTurbulence type="fractalNoise" baseFrequency="0.75" numOctaves="3" stitchTiles="stitch" result="noise" />
      <feColorMatrix type="matrix" values="1 0 0 0 0  0 1 0 0 0  0 0 1 0 0  0 0 0 0.015 0" />
      <feComposite operator="in" in2="SourceGraphic" result="monoNoise" />
      <feBlend mode="overlay" in="SourceGraphic" in2="monoNoise" />
    </filter>

    <!-- Sequential Typing Animations for Roles -->
    <clipPath id="clip-r1"><rect x="650" y="160" width="0" height="24"><animate attributeName="width" from="0" to="240" dur="0.8s" begin="0.8s" fill="freeze" /></rect></clipPath>
    <clipPath id="clip-r2"><rect x="650" y="180" width="0" height="24"><animate attributeName="width" from="0" to="240" dur="0.8s" begin="1.4s" fill="freeze" /></rect></clipPath>
    <clipPath id="clip-r3"><rect x="650" y="200" width="0" height="24"><animate attributeName="width" from="0" to="240" dur="0.8s" begin="2.0s" fill="freeze" /></rect></clipPath>
    <clipPath id="clip-r4"><rect x="650" y="220" width="0" height="24"><animate attributeName="width" from="0" to="240" dur="0.8s" begin="2.6s" fill="freeze" /></rect></clipPath>
    <clipPath id="clip-r5"><rect x="650" y="240" width="0" height="24"><animate attributeName="width" from="0" to="240" dur="0.8s" begin="3.2s" fill="freeze" /></rect></clipPath>
  </defs>

  <!-- 1. Background Canvas -->
  <rect width="1180" height="610" rx="16" fill="#FFFFFF" />

  <!-- 2. Animated Drifting Background Glows -->
  <g class="pulse-glow-el" opacity="0.6">
    <circle cx="200" cy="180" r="240" fill="url(#blue-glow)">
      <animateTransform attributeName="transform" type="translate" values="0,0; 30,-20; 0,0" dur="18s" repeatCount="indefinite" />
    </circle>
    <circle cx="950" cy="450" r="260" fill="url(#purple-glow)">
      <animateTransform attributeName="transform" type="translate" values="0,0; -40,30; 0,0" dur="22s" repeatCount="indefinite" />
    </circle>
    <circle cx="600" cy="200" r="200" fill="url(#teal-glow)">
      <animateTransform attributeName="transform" type="translate" values="0,0; 20,40; 0,0" dur="20s" repeatCount="indefinite" />
    </circle>
  </g>

  <!-- 3. Floating Particles -->
  <g opacity="0.4">
    <circle cx="120" cy="150" r="1.5" fill="#2563EB">
      <animate attributeName="cy" values="150;120;150" dur="5s" repeatCount="indefinite" /><animate attributeName="opacity" values="0.2;0.8;0.2" dur="5s" repeatCount="indefinite" />
    </circle>
    <circle cx="500" cy="420" r="1.2" fill="#06B6D4">
      <animate attributeName="cy" values="420;390;420" dur="7s" repeatCount="indefinite" /><animate attributeName="opacity" values="0.1;0.7;0.1" dur="7s" repeatCount="indefinite" />
    </circle>
    <circle cx="1080" cy="180" r="1.5" fill="#2563EB">
      <animate attributeName="cy" values="180;150;180" dur="6s" repeatCount="indefinite" /><animate attributeName="opacity" values="0.3;0.9;0.3" dur="6s" repeatCount="indefinite" />
    </circle>
  </g>

  <!-- 4. Noise Texture Overlay -->
  <rect width="1180" height="610" rx="16" fill="#000000" opacity="0.015" filter="url(#noise-filter)" pointer-events="none" />

  <!-- ======================== LEFT SIDE: FACE PORTRAIT ======================== -->
  <g class="float-ascii" transform="translate(45, 65)">
    <!-- Glow Underlay -->
    <g filter="url(#ascii-glow)" opacity="0.15">
      <text x="50" y="100" class="font-mono ascii-line al-1" font-size="12" fill="url(#ascii-gradient)">笆鯛桝笆鯛亦笆停亦笆鯛亦笆遺亦笆停桝笆鯛桝笆停亦笆停俣笆停亦笆鯛桝笆鯛桝笆鯛亦笆停亦笆停俣笆凪俣笆遺毎笆遺俣</text>
      <text x="50" y="118" class="font-mono ascii-line al-2" font-size="12" fill="url(#ascii-gradient)">笆鯛桝笆鯛亦笆停亦笆鯛亦笆遺亦笆鯛桝笆鯛亦笆遺毎笆遺毎笆遺毎笆遺亦笆鯛桝笆鯛亦笆停亦笆停俣笆凪俣笆停亦笆停亦</text>
      <text x="50" y="136" class="font-mono ascii-line al-3" font-size="12" fill="url(#ascii-gradient)">笆鯛桝笆鯛亦笆停亦笆鯛亦笆凪亦笆鯛桝笆鯛俣笆遺毎笆凪亦笆凪俣笆凪亦笆鯛桝笆鯛亦笆停亦笆停俣笆凪俣笆凪俣笆凪俣</text>
      <text x="50" y="154" class="font-mono ascii-line al-4" font-size="12" fill="url(#ascii-gradient)">笆鯛桝笆鯛亦笆停亦笆鯛亦笆凪亦笆鯛桝笆鯛桝笆停俣笆停亦笆停亦笆凪亦笆鯛桝笆鯛亦笆停亦笆停俣笆遺俣笆凪俣笆凪俣</text>
      <text x="50" y="172" class="font-mono ascii-line al-5" font-size="12" fill="url(#ascii-gradient)">笆鯛桝笆鯛亦笆停亦笆鯛亦笆凪亦笆鯛桝笆鯛桝笆鯛亦笆停俣笆凪俣笆凪亦笆鯛桝笆鯛亦笆停亦笆停俣笆凪亦笆停亦笆停亦</text>
      <text x="50" y="190" class="font-mono ascii-line al-6" font-size="12" fill="url(#ascii-gradient)">笆鯛桝笆鯛亦笆停亦笆停俣笆凪亦笆鯛桝笆鯛亦笆凪俣笆停俣笆凪毎笆遺毎笆遺毎笆凪俣笆凪亦笆停亦笆停亦笆停亦笆停亦</text>
      <text x="50" y="208" class="font-mono ascii-line al-7" font-size="12" fill="url(#ascii-gradient)">笆鯛桝笆鯛亦笆停俣笆凪俣笆凪亦笆凪毎笆遺毎笆遺毎笆停亦笆凪毎笆遺毎笆遺毎笆遺毎笆遺毎笆凪亦笆停亦笆凪俣笆凪俣</text>
      <text x="50" y="226" class="font-mono ascii-line al-8" font-size="12" fill="url(#ascii-gradient)">笆鯛桝笆鯛亦笆停俣笆凪俣笆凪俣笆遺毎笆遺毎笆遺毎笆遺毎笆遺毎笆遺毎笆遺毎笆遺毎笆遺毎笆遺俣笆凪毎笆遺毎笆遺毎</text>
      <text x="50" y="244" class="font-mono ascii-line al-9" font-size="12" fill="url(#ascii-gradient)">笆鯛桝笆鯛亦笆停俣笆停亦笆凪俣笆遺毎笆遺毎笆遺毎笆遺毎笆遺毎笆遺毎笆遺毎笆遺毎笆遺毎笆遺俣笆停亦笆停亦笆凪毎</text>
      <text x="50" y="262" class="font-mono ascii-line al-10" font-size="12" fill="url(#ascii-gradient)">笆鯛桝笆鯛亦笆凪俣笆停俣笆停俣笆遺毎笆遺毎笆遺毎笆遺毎笆遺毎笆遺毎笆遺毎笆遺毎笆遺毎笆遺毎笆停桝笆鯛桝笆凪毎</text>
      <text x="50" y="280" class="font-mono ascii-line al-11" font-size="12" fill="url(#ascii-gradient)">笆鯛桝笆鯛亦笆停俣笆停俣笆凪毎笆遺毎笆遺毎笆遺毎笆遺毎笆遺毎笆遺毎笆遺毎笆遺毎笆遺毎笆遺毎笆凪俣笆凪俣笆凪俣</text>
      <text x="50" y="298" class="font-mono ascii-line al-12" font-size="12" fill="url(#ascii-gradient)">笆停亦笆停亦笆凪俣笆凪毎笆遺毎笆遺毎笆遺毎笆遺毎笆遺毎笆遺毎笆遺毎笆遺毎笆遺毎笆凪毎笆遺毎笆遺俣笆凪俣笆遺毎</text>
      <text x="50" y="316" class="font-mono ascii-line al-13" font-size="12" fill="url(#ascii-gradient)">笆停亦笆停亦笆停亦笆凪俣笆凪亦笆凪毎笆遺毎笆遺毎笆遺毎笆遺毎笆遺毎笆遺毎笆遺毎笆凪俣笆凪俣笆遺俣笆凪俣笆凪俣</text>
      <text x="50" y="334" class="font-mono ascii-line al-14" font-size="12" fill="url(#ascii-gradient)">笆鯛桝笆鯛桝笆鯛桝笆鯛桝笆鯛桝笆停毎笆遺毎笆遺毎笆遺毎笆遺毎笆遺毎笆遺毎笆遺俣笆停俣笆凪桝笆凪毎笆遺毎笆遺毎</text>
      <text x="50" y="352" class="font-mono ascii-line al-15" font-size="12" fill="url(#ascii-gradient)">笆停亦笆停亦笆停俣笆凪亦笆停俣笆停俣笆遺毎笆遺毎笆凪毎笆遺毎笆遺毎笆遺毎笆凪俣笆凪毎笆遺俣笆遺毎笆遺毎笆遺毎</text>
    </g>

    <!-- Sharp Foreground ASCII -->
    <g>
      <text x="50" y="100" class="font-mono ascii-line al-1" font-size="12" fill="url(#ascii-gradient)">笆鯛桝笆鯛亦笆停亦笆鯛亦笆遺亦笆停桝笆鯛桝笆停亦笆停俣笆停亦笆鯛桝笆鯛桝笆鯛亦笆停亦笆停俣笆凪俣笆遺毎笆遺俣</text>
      <text x="50" y="118" class="font-mono ascii-line al-2" font-size="12" fill="url(#ascii-gradient)">笆鯛桝笆鯛亦笆停亦笆鯛亦笆遺亦笆鯛桝笆鯛亦笆遺毎笆遺毎笆遺毎笆遺亦笆鯛桝笆鯛亦笆停亦笆停俣笆凪俣笆停亦笆停亦</text>
      <text x="50" y="136" class="font-mono ascii-line al-3" font-size="12" fill="url(#ascii-gradient)">笆鯛桝笆鯛亦笆停亦笆鯛亦笆凪亦笆鯛桝笆鯛俣笆遺毎笆凪亦笆凪俣笆凪亦笆鯛桝笆鯛亦笆停亦笆停俣笆凪俣笆凪俣笆凪俣</text>
      <text x="50" y="154" class="font-mono ascii-line al-4" font-size="12" fill="url(#ascii-gradient)">笆鯛桝笆鯛亦笆停亦笆鯛亦笆凪亦笆鯛桝笆鯛桝笆停俣笆停亦笆停亦笆凪亦笆鯛桝笆鯛亦笆停亦笆停俣笆遺俣笆凪俣笆凪俣</text>
      <text x="50" y="172" class="font-mono ascii-line al-5" font-size="12" fill="url(#ascii-gradient)">笆鯛桝笆鯛亦笆停亦笆鯛亦笆凪亦笆鯛桝笆鯛桝笆鯛亦笆停俣笆凪俣笆凪亦笆鯛桝笆鯛亦笆停亦笆停俣笆凪亦笆停亦笆停亦</text>
      <text x="50" y="190" class="font-mono ascii-line al-6" font-size="12" fill="url(#ascii-gradient)">笆鯛桝笆鯛亦笆停亦笆停俣笆凪亦笆鯛桝笆鯛亦笆凪俣笆停俣笆凪毎笆遺毎笆遺毎笆凪俣笆凪亦笆停亦笆停亦笆停亦笆停亦</text>
      <text x="50" y="208" class="font-mono ascii-line al-7" font-size="12" fill="url(#ascii-gradient)">笆鯛桝笆鯛亦笆停俣笆凪俣笆凪亦笆凪毎笆遺毎笆遺毎笆停亦笆凪毎笆遺毎笆遺毎笆遺毎笆遺毎笆凪亦笆停亦笆凪俣笆凪俣</text>
      <text x="50" y="226" class="font-mono ascii-line al-8" font-size="12" fill="url(#ascii-gradient)">笆鯛桝笆鯛亦笆停俣笆凪俣笆凪俣笆遺毎笆遺毎笆遺毎笆遺毎笆遺毎笆遺毎笆遺毎笆遺毎笆遺毎笆遺俣笆凪毎笆遺毎笆遺毎</text>
      <text x="50" y="244" class="font-mono ascii-line al-9" font-size="12" fill="url(#ascii-gradient)">笆鯛桝笆鯛亦笆停俣笆停亦笆凪俣笆遺毎笆遺毎笆遺毎笆遺毎笆遺毎笆遺毎笆遺毎笆遺毎笆遺毎笆遺俣笆停亦笆停亦笆凪毎</text>
      <text x="50" y="262" class="font-mono ascii-line al-10" font-size="12" fill="url(#ascii-gradient)">笆鯛桝笆鯛亦笆凪俣笆停俣笆停俣笆遺毎笆遺毎笆遺毎笆遺毎笆遺毎笆遺毎笆遺毎笆遺毎笆遺毎笆遺毎笆停桝笆鯛桝笆凪毎</text>
      <text x="50" y="280" class="font-mono ascii-line al-11" font-size="12" fill="url(#ascii-gradient)">笆鯛桝笆鯛亦笆停俣笆停俣笆凪毎笆遺毎笆遺毎笆遺毎笆遺毎笆遺毎笆遺毎笆遺毎笆遺毎笆遺毎笆遺毎笆凪俣笆凪俣笆凪俣</text>
      <text x="50" y="298" class="font-mono ascii-line al-12" font-size="12" fill="url(#ascii-gradient)">笆停亦笆停亦笆凪俣笆凪毎笆遺毎笆遺毎笆遺毎笆遺毎笆遺毎笆遺毎笆遺毎笆遺毎笆遺毎笆凪毎笆遺毎笆遺俣笆凪俣笆遺毎</text>
      <text x="50" y="316" class="font-mono ascii-line al-13" font-size="12" fill="url(#ascii-gradient)">笆停亦笆停亦笆停亦笆凪俣笆凪亦笆凪毎笆遺毎笆遺毎笆遺毎笆遺毎笆遺毎笆遺毎笆遺毎笆凪俣笆凪俣笆遺俣笆凪俣笆凪俣</text>
      <text x="50" y="334" class="font-mono ascii-line al-14" font-size="12" fill="url(#ascii-gradient)">笆鯛桝笆鯛桝笆鯛桝笆鯛桝笆鯛桝笆停毎笆遺毎笆遺毎笆遺毎笆遺毎笆遺毎笆遺毎笆遺俣笆停俣笆凪桝笆凪毎笆遺毎笆遺毎</text>
      <text x="50" y="352" class="font-mono ascii-line al-15" font-size="12" fill="url(#ascii-gradient)">笆停亦笆停亦笆停俣笆凪亦笆停俣笆停俣笆遺毎笆遺毎笆凪毎笆遺毎笆遺毎笆遺毎笆凪俣笆凪毎笆遺俣笆遺毎笆遺毎笆遺毎</text>
    </g>
  </g>

  <!-- ======================== RIGHT SIDE: TERMINAL DASHBOARD ======================== -->
  <!-- macOS Terminal Frame -->
  <rect x="610" y="35" width="530" height="540" rx="12" fill="rgba(248, 250, 252, 0.75)" stroke="url(#border-shimmer)" stroke-width="1.2" />
  <rect x="610" y="35" width="530" height="540" rx="12" fill="url(#glass-reflection)" pointer-events="none" />

  <!-- Terminal Window Controls -->
  <circle cx="630" cy="55" r="5" fill="#FF5F56" />
  <circle cx="646" cy="55" r="5" fill="#FFBD2E" />
  <circle cx="662" cy="55" r="5" fill="#27C93F" />

  <!-- Terminal Content Group -->
  <g transform="translate(0, 0)">
    <!-- Greetings -->
    <text x="635" y="100" class="font-mono" font-size="16" fill="#0F172A">Hi 窓</text>
    <text x="635" y="125" class="font-sans" font-size="20" font-weight="800">
      <tspan fill="#0F172A">I'm </tspan><tspan fill="url(#name-gradient)">Rishi Chowdary</tspan>
    </text>

    <!-- Typing Roles Section -->
    <g class="font-mono" font-size="13" fill="#0F172A" opacity="0.8">
      <text x="635" y="160" clip-path="url(#clip-r1)">Frontend Engineer</text>
      <text x="635" y="178" clip-path="url(#clip-r2)">Full Stack Developer</text>
      <text x="635" y="196" clip-path="url(#clip-r3)">Open Source Contributor</text>
      <text x="635" y="214" clip-path="url(#clip-r4)">UI Engineer</text>
      <text x="635" y="232" clip-path="url(#clip-r5)">AI Enthusiast</text>
    </g>

    <!-- Profile Details Grid -->
    <g class="font-mono" font-size="11.5" fill="#0F172A">
      <text x="635" y="265">
        <tspan fill="#475569">Location: </tspan><tspan fill="#0F172A">Andhra Pradesh, India</tspan>
      </text>
      <text x="635" y="283">
        <tspan fill="#475569">Education: </tspan><tspan fill="#0F172A">B.Tech CSE</tspan>
      </text>
      <text x="635" y="301">
        <tspan fill="#475569">Current Focus: </tspan><tspan fill="#0F172A">Spring Boot &amp; Microservices</tspan>
      </text>
      <text x="635" y="319">
        <tspan fill="#475569">Portfolio: </tspan><tspan fill="#0F172A" text-decoration="underline">farmlink-portfolio.vercel.app</tspan>
      </text>
      <text x="635" y="337">
        <tspan fill="#475569">Email: </tspan><tspan fill="#0F172A" text-decoration="underline">rishichowdary2099@gmail.com</tspan>
      </text>
    </g>

    <!-- Glowing Tech Stack Pills (Strict Match to Layout & Colors of Screenshot) -->
    <g transform="translate(5, -5)">
      <!-- Row 1 (y=375) -->
      <g class="skill-pill">
        <rect x="630" y="375" width="70" height="22" rx="11" fill="rgba(37, 99, 235, 0.05)" stroke="#2563EB" stroke-width="1" filter="url(#react-glow)" />
        <circle cx="642" cy="386" r="3" fill="#2563EB" />
        <text x="653" y="389" class="font-mono" font-size="10" fill="#0F172A">React</text>
      </g>
      <g class="skill-pill">
        <rect x="707" y="375" width="76" height="22" rx="11" fill="rgba(15, 23, 42, 0.05)" stroke="#0F172A" stroke-width="1" filter="url(#react-glow)" />
        <circle cx="719" cy="386" r="3" fill="#0F172A" />
        <text x="730" y="389" class="font-mono" font-size="10" fill="#0F172A">Next.js</text>
      </g>
      <g class="skill-pill">
        <rect x="790" y="375" width="76" height="22" rx="11" fill="rgba(5, 150, 105, 0.05)" stroke="#059669" stroke-width="1" filter="url(#react-glow)" />
        <circle cx="802" cy="386" r="3" fill="#059669" />
        <text x="813" y="389" class="font-mono" font-size="10" fill="#0F172A">Node.js</text>
      </g>
      <g class="skill-pill">
        <rect x="873" y="375" width="90" height="22" rx="11" fill="rgba(37, 99, 235, 0.05)" stroke="#2563EB" stroke-width="1" filter="url(#react-glow)" />
        <circle cx="885" cy="386" r="3" fill="#2563EB" />
        <text x="896" y="389" class="font-mono" font-size="10" fill="#0F172A">TypeScript</text>
      </g>

      <!-- Row 2 (y=404) -->
      <g class="skill-pill">
        <rect x="630" y="404" width="80" height="22" rx="11" fill="rgba(8, 145, 178, 0.05)" stroke="#0891B2" stroke-width="1" filter="url(#react-glow)" />
        <circle cx="642" cy="415" r="3" fill="#0891B2" />
        <text x="653" y="418" class="font-mono" font-size="10" fill="#0F172A">Tailwind</text>
      </g>
      <g class="skill-pill">
        <rect x="717" y="404" width="72" height="22" rx="11" fill="rgba(217, 119, 6, 0.05)" stroke="#D97706" stroke-width="1" filter="url(#react-glow)" />
        <circle cx="729" cy="415" r="3" fill="#D97706" />
        <text x="740" y="418" class="font-mono" font-size="10" fill="#0F172A">Python</text>
      </g>
      <g class="skill-pill">
        <rect x="796" y="404" width="72" height="22" rx="11" fill="rgba(37, 99, 235, 0.05)" stroke="#2563EB" stroke-width="1" filter="url(#react-glow)" />
        <circle cx="808" cy="415" r="3" fill="#2563EB" />
        <text x="819" y="418" class="font-mono" font-size="10" fill="#0F172A">Docker</text>
      </g>
      <g class="skill-pill">
        <rect x="875" y="404" width="80" height="22" rx="11" fill="rgba(37, 99, 235, 0.05)" stroke="#2563EB" stroke-width="1" filter="url(#react-glow)" />
        <circle cx="887" cy="415" r="3" fill="#2563EB" />
        <text x="898" y="418" class="font-mono" font-size="10" fill="#0F172A">Postgres</text>
      </g>

      <!-- Row 3 (y=433) -->
      <g class="skill-pill">
        <rect x="630" y="433" width="62" height="22" rx="11" fill="rgba(234, 88, 12, 0.05)" stroke="#EA580C" stroke-width="1" filter="url(#react-glow)" />
        <circle cx="642" cy="444" r="3" fill="#EA580C" />
        <text x="653" y="447" class="font-mono" font-size="10" fill="#0F172A">AWS</text>
      </g>
      <g class="skill-pill">
        <rect x="699" y="433" width="56" height="22" rx="11" fill="rgba(220, 38, 38, 0.05)" stroke="#DC2626" stroke-width="1" filter="url(#react-glow)" />
        <circle cx="711" cy="444" r="3" fill="#DC2626" />
        <text x="722" y="447" class="font-mono" font-size="10" fill="#0F172A">Git</text>
      </g>
      <g class="skill-pill">
        <rect x="762" y="433" width="66" height="22" rx="11" fill="rgba(147, 51, 234, 0.05)" stroke="#9333EA" stroke-width="1" filter="url(#react-glow)" />
        <circle cx="774" cy="444" r="3" fill="#9333EA" />
        <text x="785" y="447" class="font-mono" font-size="10" fill="#0F172A">Figma</text>
      </g>
      <g class="skill-pill">
        <rect x="835" y="433" width="94" height="22" rx="11" fill="rgba(5, 150, 105, 0.05)" stroke="#059669" stroke-width="1" filter="url(#react-glow)" />
        <circle cx="847" cy="444" r="3" fill="#059669" />
        <text x="858" y="447" class="font-mono" font-size="10" fill="#0F172A">Spring Boot</text>
      </g>
    </g>

    <!-- Social Minimal Links -->
    <g transform="translate(635, 512)" fill="#475569" class="font-mono" font-size="11.5">
      <!-- Github Icon Link -->
      <g class="social-icon-btn">
        <a href="https://github.com/immortal4728" target="_blank">
          <path fill="#475569" d="M8 0C3.58 0 0 3.58 0 8c0 3.54 2.29 6.53 5.47 7.59.4.07.55-.17.55-.38 0-.19-.01-.82-.01-1.49-2.01.37-2.53-.49-2.69-.94-.09-.23-.48-.94-.82-1.13-.28-.15-.68-.52-.01-.53.63-.01 1.08.58 1.23.82.72 1.21 1.87.87 2.33.66.07-.52.28-.87.51-1.07-1.78-.2-3.64-.89-3.64-3.95 0-.87.31-1.59.82-2.15-.08-.2-.36-1.02.08-2.12 0 0 .67-.21 2.2.82.64-.18 1.32-.27 2-.27.68 0 1.36.09 2 .27 1.53-1.04 2.2-.82 2.2-.82.44 1.1.16 1.92.08 2.12.51.56.82 1.27.82 2.15 0 3.07-1.87 3.75-3.65 3.95.29.25.54.73.54 1.48 0 1.07-.01 1.93-.01 2.2 0 .21.15.46.55.38A8.013 8.013 0 0016 8c0-4.42-3.58-8-8-8z" />
        </a>
      </g>
      <!-- LinkedIn Icon Link -->
      <g class="social-icon-btn" transform="translate(25, -2)">
        <a href="https://linkedin.com/in/immortal4728" target="_blank">
          <path fill="#475569" d="M19 0h-14c-2.761 0-5 2.239-5 5v14c0 2.761 2.239 5 5 5h14c2.762 0 5-2.239 5-5v-14c0-2.761-2.238-5-5-5zm-11 19h-3v-11h3v11zm-1.5-12.268c-.966 0-1.75-.79-1.75-1.764s.784-1.764 1.75-1.764 1.75.79 1.75 1.764-.783 1.764-1.75 1.764zm13.5 12.268h-3v-5.604c0-3.368-4-3.113-4 0v5.604h-3v-11h3v1.765c1.396-2.586 7-2.777 7 2.476v6.759z" transform="scale(0.7)" />
        </a>
      </g>
      <!-- Twitter/X Icon Link -->
      <g class="social-icon-btn" transform="translate(50, -2)">
        <a href="https://twitter.com" target="_blank">
          <path fill="#475569" d="M18.244 2.25h3.308l-7.227 8.26 8.502 11.24H16.17l-5.214-6.817L4.99 21.75H1.68l7.73-8.835L1.254 2.25H8.08l4.713 6.231zm-1.161 17.52h1.833L7.084 4.126H5.117z" transform="scale(0.7)" />
        </a>
      </g>
      <!-- Portfolio Link text -->
      <g class="social-icon-btn" transform="translate(75, -2)">
        <a href="https://farmlink-portfolio.vercel.app" target="_blank" style="text-decoration: none;">
          <path fill="#475569" d="M12 2C6.48 2 2 6.48 2 12s4.48 10 10 10 10-4.48 10-10S17.52 2 12 2zm-1 17.93c-3.95-.49-7-3.85-7-7.93 0-.62.08-1.21.21-1.79L9 15v1c0 1.1.9 2 2 2v1.93zm6.9-2.53c-.26-.81-1-1.4-1.9-1.4h-1v-3c0-.55-.45-1-1-1h-6v-2h2c.55 0 1-.45 1-1V7h2c1.1 0 2-.9 2-2v-.41c2.93 1.19 5 4.06 5 7.41 0 2.08-.8 3.97-2.1 5.4z" transform="scale(0.7)" />
          <text x="18" y="11" font-size="10" fill="#475569">Portfolio</text>
        </a>
      </g>
    </g>

    <!-- Sparkle Star (Bottom Right) -->
    <path class="sparkle-star" fill="#2563EB" d="M1095,502 Q1095,512 1105,512 Q1095,512 1095,522 Q1095,512 1085,512 Q1095,512 1095,502 Z" filter="url(#react-glow)" />
  </g>
</svg>
